<svg width="500" height="500" viewBox="0 0 500 500" fill="none" xmlns="http://www.w3.org/2000/svg">
<path d="M61.5454 96.975C62.4824 94.584 63.6434 92.256 65.2014 90.221C70.7644 83.178 75.3494 89.342 77.1314 95.51C77.3154 96.264 77.5804 97.041 77.7954 97.827C81.2214 98.194 85.1394 98.397 87.6824 100.866C90.5494 105.085 86.0224 108.698 82.0764 110.772C82.2954 111.671 82.2714 112.819 82.4704 113.491C82.9234 117.425 83.2904 124.975 77.5294 124.468C74.1704 123.855 71.7174 121.257 69.7364 118.55C69.0604 119.319 68.2524 120.011 67.5644 120.726C65.5214 122.523 63.0174 124.335 60.2204 124.636C60.1384 124.64 60.0564 124.64 59.9744 124.64C53.8844 124.64 55.2124 115.495 56.1194 110.82C46.1984 103.991 47.4014 97.018 61.5454 96.975ZM66.9634 96.858C66.9674 96.858 66.9714 96.858 66.9714 96.854C67.1214 96.555 67.2704 96.255 67.4164 95.956C67.4344 95.923 67.4494 95.887 67.4674 95.854C67.4794 95.827 67.4984 95.796 67.5064 95.768C67.5104 95.764 67.5104 95.764 67.5104 95.76C67.5184 95.756 67.5184 95.748 67.5224 95.744H67.5184C67.5334 95.719 67.5464 95.692 67.5574 95.666L67.5584 95.665C67.5614 95.659 67.5634 95.653 67.5654 95.646C67.5654 95.648 67.5654 95.649 67.5654 95.651C67.8404 95.089 68.1074 94.524 68.3784 93.959C68.6594 93.366 68.9134 92.756 69.1914 92.162C69.1874 92.174 69.1794 92.185 69.1754 92.197C69.3474 91.838 69.5234 91.486 69.7344 91.15C69.7344 91.146 69.7384 91.146 69.7384 91.142C69.7424 91.138 69.7424 91.138 69.7424 91.134C69.8204 91.013 69.9064 90.892 69.9924 90.782V90.786C70.0354 90.735 70.0784 90.684 70.1214 90.641C70.1254 90.641 70.1254 90.637 70.1254 90.637C70.1494 90.618 70.1724 90.598 70.1924 90.586C70.1884 90.586 70.1884 90.586 70.1884 90.586C70.1924 90.582 70.1964 90.582 70.1964 90.582C70.2004 90.582 70.2004 90.578 70.2004 90.578L70.2044 90.582C70.2204 90.582 70.2274 90.566 70.2244 90.555C70.2084 90.508 70.0404 90.598 70.0254 90.606C69.4824 90.852 69.0414 91.352 68.6814 91.813C68.1034 92.559 67.6694 93.399 67.3924 94.305C67.1424 95.129 67.0054 95.989 66.9514 96.844C66.9484 96.854 66.9564 96.858 66.9634 96.858ZM64.7484 96.178C64.7564 96.178 64.7604 96.178 64.7604 96.174C64.9554 95.693 65.1314 95.201 65.2564 94.701C65.3504 94.31 65.4084 93.908 65.5184 93.521C65.5184 93.525 65.5184 93.525 65.5184 93.525C65.5184 93.521 65.5224 93.517 65.5224 93.513C65.5344 93.497 65.5104 93.478 65.4984 93.49C65.3934 93.572 65.3224 93.732 65.2564 93.846C65.1354 94.049 65.0374 94.26 64.9554 94.483C64.7564 95.018 64.7094 95.6 64.7364 96.17C64.7374 96.174 64.7454 96.178 64.7484 96.178ZM55.0694 101.237C55.0694 101.237 55.0694 101.237 55.0694 101.241C55.0924 101.229 55.1204 101.221 55.1434 101.209C55.1394 101.213 55.1314 101.213 55.1274 101.217C56.3224 100.787 57.5294 100.369 58.7714 100.088C58.7634 100.092 58.7554 100.092 58.7484 100.096C59.0224 100.033 59.2954 99.983 59.5684 99.932C59.5724 99.932 59.7164 99.912 59.6774 99.877C59.6734 99.875 59.6684 99.874 59.6614 99.877H59.6574C59.4504 99.861 59.2434 99.806 59.0404 99.779C58.7044 99.732 58.3644 99.709 58.0284 99.705C57.3054 99.693 56.5834 99.795 55.8874 99.986C55.2504 100.162 54.6494 100.463 54.0904 100.814C53.6174 101.115 53.1804 101.47 52.8054 101.884C52.6414 102.068 52.4924 102.259 52.3524 102.458C52.3484 102.47 52.3524 102.481 52.3644 102.481C52.3644 102.481 52.3684 102.481 52.3684 102.477C52.6064 102.333 52.8494 102.192 53.0954 102.063C53.0914 102.063 53.0874 102.063 53.0834 102.063C53.7214 101.733 54.3934 101.483 55.0694 101.237Z" fill="#FFA1C0"/>
<path d="M118.5 133.471C118.422 131.975 118.481 130.459 118.82 129.002C120.082 123.928 124.004 126.1 126.429 128.947C126.71 129.306 127.039 129.658 127.339 130.025C129.249 129.392 131.378 128.56 133.323 129.263C135.858 130.818 134.319 133.826 132.721 135.872C133.053 136.298 133.315 136.915 133.584 137.224C134.771 139.204 136.779 143.13 133.596 144.244C131.666 144.724 129.737 143.935 128.037 142.971C127.857 143.541 127.591 144.104 127.4 144.651C126.744 146.096 125.849 147.663 124.435 148.491C123.997 148.71 123.591 148.807 123.212 148.807C120.724 148.807 119.501 144.51 118.935 142.131C112.023 140.885 110.992 136.893 118.5 133.471ZM122.172 132.526C122.176 132.53 122.18 132.534 122.184 132.534C122.188 132.534 122.196 132.53 122.196 132.522C122.227 132.104 122.239 131.682 122.188 131.268C122.165 131.08 122.133 130.893 122.094 130.705C122.086 130.674 122.082 130.564 122.047 130.545C122.045 130.543 122.043 130.543 122.041 130.543C122.034 130.543 122.028 130.552 122.031 130.561H122.027V130.565C122.008 130.858 121.941 131.143 121.941 131.44C121.941 131.811 122.043 132.178 122.172 132.526ZM121.168 132.272C121.172 132.28 121.18 132.28 121.184 132.28C121.192 132.28 121.196 132.276 121.196 132.272C121.305 131.448 121.403 130.62 121.387 129.788C121.387 129.741 121.387 129.694 121.387 129.647C121.383 129.612 121.383 129.573 121.383 129.538C121.383 129.518 121.383 129.499 121.383 129.479C121.375 129.17 121.36 128.858 121.356 128.545C121.356 128.541 121.374 128.38 121.336 128.38L121.332 128.381C121.324 128.381 121.324 128.389 121.324 128.397C121.324 128.397 121.324 128.401 121.32 128.405L121.324 128.401C121.109 128.983 120.957 129.577 120.906 130.198C120.851 130.893 120.968 131.612 121.168 132.272ZM116.175 137.908C116.179 137.908 116.179 137.904 116.183 137.904C116.601 137.552 117.035 137.216 117.464 136.88C117.87 136.564 118.234 136.196 118.648 135.896C118.652 135.896 118.656 135.892 118.66 135.888L118.659 135.89C118.768 135.816 118.884 135.739 119.003 135.674C119.05 135.647 119.101 135.627 119.151 135.604V135.608C119.159 135.604 119.167 135.6 119.178 135.596C119.182 135.596 119.186 135.596 119.19 135.596C119.206 135.596 119.21 135.576 119.198 135.572C119.065 135.51 118.8 135.592 118.663 135.627C118.331 135.713 118.015 135.877 117.729 136.064C117.041 136.513 116.51 137.15 116.162 137.888C116.156 137.897 116.164 137.908 116.175 137.908Z" fill="#FFA1C0"/>
<path d="M86.1686 199.044C86.7706 198.294 87.3246 196.825 88.0666 195.794C84.1176 191.142 80.2156 184.239 86.0116 180.349C90.5076 178.517 95.5856 180.255 100.121 181.548C100.797 180.661 101.531 179.81 102.152 178.946C107.57 172.028 116.551 166.548 120.008 178.333C120.942 181.72 121.223 185.267 121.192 188.782C139.133 196.071 137.09 205.544 121.001 209.137C119.896 214.832 117.399 225.211 111.403 225.211C110.579 225.211 109.684 225.016 108.719 224.582C105.32 222.773 103.071 219.184 101.395 215.863C100.891 214.601 100.215 213.312 99.7456 211.988C95.8476 214.41 91.4056 216.449 86.8276 215.511C79.2506 213.208 83.5826 203.81 86.1686 199.044ZM107.357 181.493C107.361 181.493 107.361 181.493 107.365 181.489C107.853 180.833 108.353 180.18 108.861 179.54C109.545 178.685 110.252 177.845 110.982 177.028C110.982 177.032 110.982 177.032 110.982 177.032C111.349 176.626 111.724 176.227 112.13 175.852V175.856C112.321 175.676 112.528 175.512 112.735 175.352C112.731 175.356 112.727 175.36 112.723 175.364C112.84 175.282 112.965 175.196 113.09 175.126H113.094C113.094 175.126 113.098 175.126 113.098 175.122C113.141 175.102 113.188 175.079 113.231 175.059H113.227C113.25 175.051 113.274 175.043 113.301 175.036C113.297 175.036 113.297 175.036 113.297 175.036C113.301 175.036 113.305 175.036 113.313 175.032H113.317C113.321 175.032 113.325 175.028 113.325 175.02C113.325 175.016 113.321 175.012 113.317 175.012C113.317 175.008 113.313 175.008 113.313 175.008C113.204 174.989 113.086 175.008 112.973 175.028C112.743 175.067 112.52 175.141 112.301 175.223C111.567 175.504 110.883 175.957 110.281 176.461C109.617 177.016 109.062 177.66 108.609 178.399C108.187 179.094 107.851 179.84 107.593 180.61C107.499 180.895 107.414 181.184 107.339 181.477C107.341 181.489 107.349 181.493 107.357 181.493ZM104.095 182.153C104.099 182.153 104.103 182.153 104.107 182.149C104.501 181.473 104.892 180.794 105.259 180.106C105.634 179.403 105.946 178.672 106.282 177.95C106.278 177.958 106.278 177.966 106.274 177.973C106.395 177.715 106.52 177.453 106.673 177.215C106.685 177.199 106.7 177.18 106.708 177.16C106.712 177.148 106.696 177.137 106.688 177.148C106.426 177.32 106.204 177.535 105.993 177.765C105.645 178.136 105.345 178.546 105.083 178.984C104.548 179.875 104.243 180.902 104.107 181.929C104.099 181.995 104.091 182.069 104.083 182.14C104.083 182.149 104.087 182.153 104.095 182.153ZM89.3326 183.915C89.3566 183.912 89.3846 183.912 89.4116 183.912C90.4776 183.89 91.5486 183.921 92.6116 184.024C92.6466 184.027 92.6806 184.03 92.7156 184.033C92.6956 184.033 92.6766 184.029 92.6566 184.029C93.3446 184.103 94.0276 184.213 94.7036 184.377C94.6956 184.373 94.6886 184.373 94.6806 184.369C94.9466 184.435 95.2076 184.51 95.4736 184.584C95.5126 184.596 95.6296 184.647 95.6926 184.647C95.7046 184.647 95.7156 184.647 95.7236 184.639C95.7356 184.635 95.7276 184.616 95.7156 184.616C95.7116 184.616 95.7116 184.612 95.7076 184.612H95.7116C95.5396 184.514 95.3876 184.382 95.2276 184.268C94.9776 184.092 94.7156 183.932 94.4466 183.787C93.8176 183.459 93.1416 183.217 92.4466 183.08C92.0566 183.002 91.6596 182.966 91.2616 182.966C90.3386 182.966 89.4126 183.161 88.5556 183.486C88.1536 183.642 87.7626 183.834 87.3956 184.06C87.3836 184.068 87.3876 184.087 87.4036 184.083C88.0516 183.985 88.7046 183.935 89.3606 183.911C89.3486 183.911 89.3406 183.915 89.3326 183.915Z" fill="#FFA1C0"/>
<path d="M89.4346 183.911C89.4266 183.911 89.4196 183.912 89.4116 183.912C89.4036 183.912 89.3956 183.911 89.3876 183.911C89.4036 183.911 89.4186 183.911 89.4346 183.911Z" fill="#FFA1C0"/>
<path d="M92.6338 184.024C92.6268 184.023 92.6188 184.024 92.6118 184.023C92.5998 184.022 92.5878 184.021 92.5748 184.02C92.5948 184.02 92.6148 184.024 92.6338 184.024Z" fill="#FFA1C0"/>
<path d="M166.479 224.358C166.983 222.131 167.686 219.932 168.78 217.932C172.714 211.002 177.573 215.795 179.968 220.967C180.23 221.604 180.569 222.252 180.862 222.912C183.921 222.772 187.385 222.424 189.956 224.248C193.042 227.568 189.55 231.349 186.366 233.701C186.682 234.459 186.815 235.474 187.081 236.037C188.007 239.428 189.35 246.01 184.221 246.342C181.19 246.256 178.686 244.303 176.584 242.197C176.092 242.962 175.475 243.677 174.967 244.399C173.416 246.251 171.463 248.181 169.049 248.822C168.721 248.888 168.408 248.916 168.115 248.916C163.478 248.916 163.428 241.272 163.58 237.244C153.952 232.585 154.065 226.3 166.479 224.358ZM170.78 225.054C170.78 225.062 170.788 225.065 170.792 225.065C170.8 225.065 170.804 225.062 170.804 225.058C171.035 224.331 171.277 223.605 171.515 222.878C171.859 221.823 172.175 220.757 172.507 219.694C172.507 219.698 172.507 219.702 172.507 219.702C172.718 219.065 172.937 218.432 173.218 217.823C173.3 217.651 173.382 217.479 173.483 217.315L173.479 217.319C173.495 217.296 173.51 217.271 173.53 217.248C173.534 217.244 173.542 217.237 173.549 217.229C173.545 217.229 173.545 217.229 173.545 217.229C173.549 217.229 173.549 217.225 173.553 217.225C173.553 217.225 173.553 217.225 173.549 217.225C173.553 217.225 173.553 217.224 173.557 217.22C173.569 217.22 173.569 217.201 173.557 217.198C173.53 217.194 173.491 217.221 173.471 217.237C173.276 217.358 173.108 217.54 172.955 217.705C172.307 218.392 171.814 219.221 171.451 220.085C170.814 221.601 170.635 223.323 170.771 224.952C170.772 224.987 170.776 225.022 170.78 225.054ZM169.436 222.304C169.44 222.304 169.444 222.304 169.448 222.296C169.632 221.851 169.796 221.39 169.894 220.917C169.964 220.554 169.999 220.174 170.101 219.815C170.101 219.819 170.101 219.82 170.101 219.82C170.101 219.812 170.113 219.793 170.109 219.781C170.105 219.773 170.09 219.769 170.086 219.781C170.02 219.844 169.969 219.937 169.922 220.019C169.801 220.222 169.707 220.44 169.629 220.662C169.445 221.182 169.402 221.745 169.426 222.292C169.424 222.3 169.429 222.304 169.436 222.304ZM159.628 230.975C159.628 230.975 159.632 230.974 159.632 230.97C160.808 230.017 162.03 229.135 163.288 228.299C163.276 228.307 163.264 228.315 163.249 228.322C163.28 228.303 163.315 228.279 163.347 228.259L163.345 228.261C163.857 227.926 164.382 227.61 164.929 227.332C164.925 227.336 164.921 227.337 164.917 227.341C165.058 227.275 165.198 227.203 165.343 227.149C165.355 227.149 165.359 227.13 165.343 227.127C165.234 227.104 165.089 227.131 164.98 227.142C164.73 227.162 164.48 227.205 164.234 227.255C163.683 227.368 163.148 227.563 162.644 227.817C161.582 228.348 160.738 229.177 160.081 230.158C159.909 230.416 159.757 230.682 159.616 230.951C159.612 230.964 159.62 230.975 159.628 230.975Z" fill="#FFA1C0"/>
<path d="M285.601 147.65C285.621 147.641 285.639 147.63 285.658 147.622C285.674 147.615 285.69 147.61 285.706 147.604C285.671 147.619 285.636 147.635 285.601 147.65Z" fill="#C5628E"/>
<path d="M254.39 150.743C254.418 150.749 254.446 150.751 254.474 150.757C254.485 150.76 254.496 150.764 254.507 150.767C254.468 150.759 254.429 150.751 254.39 150.743Z" fill="#C5628E"/>
<path d="M264.577 151.752C264.592 151.752 264.608 151.749 264.623 151.749C264.647 151.749 264.67 151.752 264.694 151.752C264.655 151.752 264.615 151.752 264.577 151.752Z" fill="#C5628E"/>
<path d="M271.366 151.325C271.386 151.322 271.406 151.317 271.427 151.315C271.434 151.314 271.442 151.315 271.449 151.314C271.421 151.317 271.394 151.321 271.366 151.325Z" fill="#C5628E"/>
<path d="M243.914 146.229C243.933 146.241 243.953 146.25 243.971 146.262C243.985 146.271 243.997 146.282 244.011 146.291C243.976 146.268 243.945 146.248 243.914 146.229Z" fill="#C5628E"/>
<path d="M199.3 154.045C199.308 154.046 199.316 154.046 199.323 154.047C199.325 154.048 199.328 154.048 199.331 154.049C199.32 154.049 199.312 154.045 199.3 154.045Z" fill="#C5628E"/>
<path d="M41.6478 437.979C44.3318 433.752 47.0858 429.565 49.8318 425.377C55.6908 416.502 61.6087 407.658 67.8907 399.076C74.2307 390.498 81.2698 382.47 87.9538 374.166C94.6918 365.881 101.317 357.498 108.028 349.193C116.426 339.31 124.321 327.892 135.571 321.138C136.212 319.786 136.942 318.474 137.77 317.197C153.356 295.447 183.961 302.603 205.524 309.978C216.043 313.568 226.332 317.869 236.313 322.748C240.461 324.76 244.633 326.9 248.684 329.244C249.278 328.81 249.864 328.353 250.442 327.865C255.11 323.904 258.555 318.56 260.387 312.72C259.352 311.736 258.344 310.736 257.473 309.853C256.68 310.661 255.676 311.435 255.297 311.904C252.402 314.506 249.074 317.009 245.102 317.474C230.629 318.751 206.684 293.189 195.637 283.861C185.535 274.685 173.555 268.068 162.098 260.81C154.844 255.185 169.165 256.33 172.102 256.861C176.95 257.611 182.032 259.135 186.297 261.732C185.485 259.556 185.106 256.427 185.574 255.709C187.461 251.127 191.328 255.455 193.008 257.818C196.649 262.904 201.02 268.556 201.297 275.006C212.977 278.377 227.953 286.639 239.649 293.736C240.743 291.556 241.84 289.381 242.887 287.181C242.371 285.064 242.094 282.88 242.11 280.634C242.305 275.861 243.739 270.986 246.477 267.056C243.438 261.576 243.606 254.525 249.309 250.802C252.786 248.075 257.418 248.29 261.321 246.579C265.106 244.837 266.52 241.934 266.524 238.634C260.544 240.064 254.45 240.993 248.411 241.497C228.724 242.509 204.071 236.735 195.274 217.13C192.555 211.064 193.258 204.212 193.711 197.759C193.781 197.103 193.844 196.446 193.895 195.786C192.946 195.559 192.004 195.302 191.071 195.013C181.411 191.822 171.727 184.658 169.657 174.177C168.509 168.587 170.317 162.845 174.309 158.806C175.727 157.22 177.352 155.595 177.606 153.365C177.172 143.271 164.61 142.525 166.485 127.135C164.153 125.756 162.333 123.619 160.926 121.33C154.438 110.115 161.11 93.3886 174.028 90.6696C175.977 90.2786 178.044 90.2516 180.02 90.6186C178.954 88.6346 178.707 86.0636 178.919 83.8956C179.716 78.5716 184.411 74.7276 189.067 72.6416C194.821 70.1886 201.587 69.7076 207.501 71.8676C212.106 73.5156 216.579 78.1566 216.173 83.1916C221.033 80.4216 227.251 83.4616 229.732 88.2036C237.154 88.1216 244.568 88.8396 251.658 90.7736C249.24 85.4256 251.447 79.1756 255.506 75.2306C262.139 67.7036 273.928 67.3396 281.518 72.7816C281.401 70.6606 281.631 68.5276 282.209 66.4766C285.479 55.0866 302.662 52.6686 312.775 53.9336C316.052 54.3696 319.232 55.2396 322.306 56.3976C326.948 47.3006 331.748 38.2876 337.367 29.7526C341.124 23.9576 351.128 8.96456 356.723 20.8616C367.05 51.0596 368.141 87.8366 364.708 119.413C362.292 138.714 356.488 157.44 349.442 175.515C347.851 179.36 346.333 183.247 344.776 187.117C352.494 175.393 360.142 163.624 367.539 151.694C386.732 120.187 404.616 87.8786 424.762 56.9516C430.609 47.9686 436.418 38.9186 443.308 30.6936C447.553 25.7156 454.629 17.9386 459.23 27.0646C465 41.1186 466.967 56.5206 468.019 71.5876C469.187 89.7546 466.815 108.096 460.866 125.311C458.081 133.939 454.452 142.327 449.514 149.951C446.033 155.328 441.99 160.395 437.108 164.568C436.643 164.973 436.16 165.36 435.681 165.751C437.999 170.05 439.693 174.661 441.053 179.346C444.662 191.054 444.288 203.507 441.521 215.346C432.382 254.519 403.804 287.788 367.513 304.44C386.924 311.73 403.137 329.297 409.598 348.774C411.105 354.86 405.913 359.432 400.012 358.27C395.21 357.303 390.94 354.475 387.322 351.267C385.372 359.536 377.586 364.681 369.485 365.744C370.366 368.282 371.271 370.812 372.134 373.355C378.681 378.754 386.443 382.972 392.443 389.011C393.884 390.589 397.783 395.011 394.006 396.034C390.834 396.062 388.178 393.737 385.67 392.05C387.205 395.073 394.377 404.324 388.631 405.968C380.932 406.171 370.877 396.757 365.6 390.652C363.803 394.156 361.194 397.582 357.417 398.91C350.596 399.851 355.276 390.02 356.19 386.727C356.998 384.399 357.374 381.864 356.811 379.418C356.065 376.051 354.252 372.867 352.487 369.914C350.8 367.113 349.06 364.345 347.324 361.574C342.053 359.163 337.092 355.978 332.604 352.466C328.033 348.922 324.121 344.717 320.62 340.172C319.648 352.147 320.073 364.92 327.116 375.09C331.804 382.297 338.378 388.281 342.3 395.961C347.406 406.375 338.632 413.422 330.503 418.332C322.159 423.719 312.452 426.527 302.636 427.629C291.866 429.027 282.402 426.891 274.429 422.277C272.25 422.765 270.003 423.121 267.859 423.386C246.16 426.16 219.472 412.784 202.711 399.695C190.684 390.359 180.074 379.097 171.926 366.238C174.024 387.34 170.735 408.769 163.571 428.707C166.919 429.187 169.716 431.855 170.508 435.289C172.113 442.582 171.129 450.176 171.086 457.578C170.594 463.672 171.188 479.484 166.281 483.156C165.804 483.468 165.351 483.601 164.926 483.601C163.332 483.601 162.102 481.753 161.453 480.285C159.941 477.367 158.637 474.344 157.344 471.328C145.453 444.254 140.281 414.828 136.391 385.676C136.106 382.66 135.684 379.516 135.2 376.281C127.712 387.054 117.653 395.949 106.274 402.574C98.0277 407.613 89.0787 411.625 79.6447 413.691C79.7777 421.828 74.1648 428.999 67.5858 433.449C63.4688 436.464 59.1558 439.207 54.7888 441.84C50.4178 444.363 45.9218 447.285 40.8198 447.946C34.0818 447.959 40.0888 440.783 41.6478 437.979ZM195.074 164.342C195.242 166.448 195.437 168.549 195.554 170.659C195.663 172.655 195.706 174.659 195.687 176.659C195.671 178.1 195.624 179.546 195.539 180.983C195.539 180.971 195.543 180.96 195.543 180.948C195.535 181.053 195.531 181.163 195.523 181.268C195.523 181.272 195.523 181.272 195.523 181.276C195.519 181.296 195.519 181.315 195.519 181.335C195.519 181.339 195.519 181.343 195.519 181.347C195.515 181.359 195.515 181.374 195.515 181.39C195.515 181.402 195.515 181.417 195.511 181.433C195.515 181.433 195.515 181.429 195.515 181.429C195.378 183.441 195.269 185.456 195.124 187.468C194.995 189.269 194.878 191.073 194.683 192.87C194.683 192.862 194.683 192.854 194.683 192.847C194.636 193.265 194.597 193.695 194.499 194.105C194.499 194.101 194.499 194.101 194.499 194.101C194.495 194.113 194.491 194.121 194.487 194.132C194.483 194.14 194.487 194.152 194.499 194.152C194.499 194.152 194.499 194.152 194.503 194.152C194.534 194.14 194.585 193.999 194.604 193.957C194.76 193.621 194.885 193.273 195.006 192.93C195.319 192.039 195.573 191.133 195.811 190.223C196.327 188.25 196.698 186.254 196.991 184.243C197.241 182.524 197.327 180.794 197.397 179.059C197.397 179.047 197.397 179.032 197.397 179.02C197.401 179 197.401 178.985 197.401 178.965C197.401 178.969 197.401 178.973 197.401 178.98C197.401 178.89 197.405 178.804 197.409 178.718C197.409 178.73 197.409 178.741 197.409 178.753C197.409 178.718 197.413 178.682 197.413 178.647C197.413 178.643 197.413 178.639 197.413 178.639C197.483 176.643 197.464 174.631 197.39 172.631C197.316 170.549 197.214 168.467 197.034 166.389C196.858 164.381 196.573 162.378 196.151 160.405C195.725 158.413 195.174 156.444 194.553 154.51C194.456 154.217 194.358 153.924 194.26 153.635C194.256 153.619 194.236 153.627 194.236 153.639C194.361 155.475 194.521 157.303 194.67 159.135C194.815 160.908 194.936 162.682 195.084 164.451C195.081 164.416 195.078 164.377 195.074 164.342ZM228.16 88.0606C226.64 87.7836 225.101 87.6586 223.554 87.6736C221.699 87.6936 219.851 87.8686 218.015 88.1346C216.007 88.4236 214.031 88.8766 212.058 89.3376C210.163 89.7796 208.261 90.2046 206.39 90.7516C202.429 91.9116 198.585 93.5286 194.921 95.4346C191.12 97.4116 187.433 99.6336 184.003 102.212C180.608 104.763 177.401 107.571 174.53 110.708C171.714 113.778 169.612 117.493 168.327 121.454C168.073 122.235 167.87 123.036 167.698 123.841C167.612 124.24 167.534 124.642 167.467 125.044C167.44 125.212 167.409 125.388 167.409 125.556C167.409 125.556 167.409 125.556 167.405 125.56C167.405 125.568 167.409 125.576 167.417 125.576C167.425 125.576 167.429 125.572 167.433 125.564C167.453 125.513 167.464 125.459 167.484 125.404C167.703 124.826 167.961 124.263 168.218 123.705C168.511 123.06 168.824 122.428 169.148 121.799C169.144 121.807 169.14 121.815 169.136 121.826C169.171 121.756 169.21 121.685 169.249 121.611C169.249 121.611 169.249 121.611 169.253 121.611V121.607C169.253 121.603 169.257 121.603 169.257 121.595C170.195 119.857 171.226 118.177 172.32 116.532C173.461 114.81 174.671 113.142 176.05 111.599C176.085 111.56 176.124 111.517 176.164 111.474C176.16 111.478 176.156 111.482 176.152 111.486C176.164 111.474 176.175 111.459 176.187 111.447C176.195 111.439 176.203 111.435 176.207 111.427L176.203 111.431C176.293 111.333 176.383 111.232 176.473 111.134C176.45 111.161 176.422 111.192 176.399 111.22C177.817 109.7 179.337 108.279 180.907 106.915C182.458 105.567 184.071 104.286 185.731 103.079C189.134 100.602 192.747 98.4376 196.509 96.5586C200.126 94.7536 203.896 93.2266 207.806 92.1876C207.896 92.1646 207.986 92.1366 208.076 92.1136C208.041 92.1256 208.002 92.1336 207.966 92.1446C208.068 92.1176 208.165 92.0896 208.263 92.0666C208.353 92.0426 208.439 92.0196 208.525 91.9966C208.529 91.9966 208.533 91.9966 208.533 91.9966C208.533 92.0006 208.533 92.0006 208.533 92.0006C208.548 91.9966 208.568 91.9886 208.584 91.9846C208.584 91.9846 208.584 91.9846 208.58 91.9846C208.58 91.9846 208.584 91.9846 208.588 91.9806H208.592C208.592 91.9846 208.592 91.9846 208.592 91.9846C208.643 91.9696 208.697 91.9576 208.752 91.9416C208.748 91.9416 208.744 91.9416 208.744 91.9416C208.791 91.9296 208.838 91.9186 208.885 91.9066V91.9106C210.702 91.4616 212.522 91.0396 214.354 90.6406C215.295 90.4376 216.237 90.2536 217.178 90.0546C218.088 89.8596 218.998 89.6596 219.917 89.4646C219.921 89.4646 219.921 89.4646 219.921 89.4646C219.933 89.4606 219.944 89.4606 219.952 89.4566C219.956 89.4566 219.956 89.4566 219.96 89.4566C219.964 89.4566 219.968 89.4566 219.972 89.4526H219.976C222.355 88.9566 224.722 88.4406 227.136 88.1786C227.132 88.1786 227.124 88.1786 227.116 88.1786C227.464 88.1436 227.811 88.1086 228.163 88.0816C228.171 88.0836 228.175 88.0606 228.16 88.0606ZM311.32 164.525C311.324 164.529 311.328 164.533 311.328 164.533C310.633 164.045 309.965 163.513 309.324 162.951C308.746 162.443 308.191 161.904 307.66 161.346C307.656 161.342 307.648 161.334 307.645 161.33C307.227 160.877 306.836 160.405 306.462 159.912C306.043 159.354 305.647 158.78 305.276 158.191C304.766 157.371 304.293 156.528 303.849 155.665C303.464 154.891 303.118 154.104 302.809 153.299C302.532 152.561 302.288 151.811 302.08 151.048C301.756 149.802 301.51 148.54 301.291 147.275C301.287 147.244 301.279 147.216 301.275 147.185C301.099 146.15 300.951 145.107 300.744 144.076C300.638 143.556 300.506 143.033 300.279 142.552C299.9 141.759 299.185 141.091 298.252 141.173C297.639 141.232 297.029 141.513 296.498 141.802C295.99 142.076 295.518 142.392 295.029 142.697C294.072 143.295 293.099 143.861 292.119 144.416C290.024 145.601 287.863 146.656 285.66 147.622C284.352 148.184 283.028 148.695 281.677 149.139C280.169 149.608 278.646 150.006 277.107 150.354C277.111 150.35 277.115 150.35 277.119 150.346C275.237 150.756 273.342 151.075 271.43 151.316C269.168 151.575 266.901 151.721 264.627 151.749C262.741 151.755 260.862 151.695 258.983 151.514C257.468 151.345 255.966 151.089 254.477 150.759C253.262 150.479 252.069 150.136 250.893 149.725C249.78 149.319 248.69 148.862 247.62 148.35C247.608 148.346 247.589 148.338 247.573 148.327C247.569 148.327 247.569 148.327 247.565 148.323C247.561 148.323 247.557 148.319 247.549 148.315C247.545 148.315 247.545 148.315 247.541 148.311C246.315 147.7 245.132 147.01 243.973 146.262C242.613 145.363 241.305 144.402 240.044 143.374C240.056 143.386 240.067 143.397 240.079 143.409C238.814 142.358 237.599 141.245 236.442 140.073C235.641 139.249 234.868 138.397 234.11 137.53C233.387 136.71 232.68 135.878 231.93 135.081C231.528 134.655 231.118 134.198 230.629 133.866C230.285 133.632 229.942 133.491 229.524 133.511C229.305 133.523 229.075 133.644 228.903 133.777C228.719 133.918 228.567 134.121 228.473 134.336C228.243 134.871 228.188 135.465 228.118 136.035C228.055 136.543 227.981 137.043 227.884 137.543C227.861 137.656 227.837 137.766 227.814 137.879C227.818 137.859 227.826 137.844 227.83 137.824C227.662 138.566 227.463 139.3 227.225 140.019C227.217 140.035 227.209 140.054 227.206 140.07C227.011 140.597 226.78 141.113 226.53 141.617V141.613C226.147 142.336 225.725 143.039 225.268 143.719C224.831 144.367 224.354 144.989 223.858 145.59C223.257 146.281 222.62 146.942 221.948 147.571C221.245 148.208 220.507 148.805 219.741 149.372H219.745C218.991 149.911 218.218 150.419 217.413 150.884C216.476 151.404 215.514 151.876 214.53 152.298C214.53 152.294 214.53 152.294 214.53 152.294C213.499 152.72 212.452 153.087 211.382 153.399C211.378 153.399 211.37 153.403 211.367 153.403C211.355 153.407 211.339 153.411 211.328 153.411C211.324 153.415 211.32 153.415 211.316 153.415C211.32 153.415 211.324 153.415 211.324 153.415C210.461 153.642 209.593 153.825 208.715 153.981C207.582 154.165 206.453 154.305 205.309 154.376C205.317 154.376 205.325 154.376 205.333 154.376C204.481 154.414 203.629 154.416 202.782 154.391C201.623 154.34 200.472 154.235 199.329 154.05C198.847 153.968 198.365 153.867 197.888 153.727C197.888 153.723 197.884 153.723 197.88 153.723C197.743 153.68 197.606 153.633 197.474 153.571C197.474 153.575 197.474 153.575 197.474 153.575C197.431 153.555 197.388 153.536 197.353 153.512C197.353 153.512 197.353 153.512 197.357 153.512C197.341 153.508 197.326 153.496 197.314 153.485C197.31 153.481 197.306 153.477 197.302 153.473C197.302 153.473 197.298 153.469 197.298 153.465V153.469C197.298 153.469 197.298 153.469 197.294 153.465C197.294 153.465 197.294 153.465 197.294 153.461C197.309 153.461 197.306 153.437 197.29 153.437C197.274 153.437 197.263 153.457 197.267 153.472C197.279 153.523 197.33 153.562 197.369 153.593C197.474 153.687 197.596 153.769 197.717 153.843C198.604 154.374 199.596 154.734 200.58 155.038C201.666 155.374 202.791 155.62 203.92 155.753C205.045 155.882 206.178 155.905 207.307 155.858C209.589 155.761 211.838 155.186 213.971 154.389C215.065 153.983 216.151 153.545 217.186 153.006C218.256 152.447 219.287 151.83 220.28 151.143C220.546 150.959 220.807 150.776 221.069 150.588C221.049 150.6 221.03 150.615 221.01 150.627C222.936 149.24 224.631 147.584 226.065 145.693C226.753 144.783 227.389 143.81 227.948 142.814C228.506 141.818 228.909 140.763 229.241 139.669C229.46 138.939 229.639 138.192 229.796 137.446C229.866 137.094 229.929 136.739 229.96 136.383C229.983 136.133 229.991 135.879 230.007 135.629C230.027 135.645 230.042 135.66 230.058 135.676C230.824 136.426 231.503 137.254 232.21 138.059C232.98 138.934 233.765 139.797 234.566 140.645C236.097 142.266 237.726 143.782 239.464 145.176C241.316 146.657 243.261 148.008 245.335 149.16C247.339 150.273 249.452 151.18 251.647 151.852C253.987 152.571 256.424 153.055 258.862 153.274C261.186 153.485 263.526 153.524 265.858 153.465C267.749 153.418 269.631 153.297 271.507 153.078C273.442 152.852 275.361 152.52 277.264 152.103C279.677 151.576 282.064 150.948 284.366 150.051C286.585 149.188 288.761 148.215 290.878 147.117C292.069 146.504 293.249 145.867 294.409 145.199C294.964 144.882 295.514 144.562 296.065 144.234C296.643 143.898 297.198 143.515 297.78 143.191C297.905 143.132 298.026 143.078 298.151 143.023C298.221 143 298.291 142.98 298.366 142.96C298.386 142.956 298.405 142.956 298.421 142.952C298.425 142.952 298.429 142.952 298.429 142.952C298.431 142.954 298.432 142.954 298.434 142.954C298.465 142.95 298.501 142.946 298.536 142.942C298.501 142.946 298.469 142.95 298.438 142.954H298.434C298.435 142.954 298.436 142.955 298.437 142.955C298.441 142.959 298.449 142.967 298.453 142.971C298.465 142.983 298.476 142.991 298.484 143.002C298.511 143.037 298.535 143.072 298.562 143.104C298.589 143.155 298.617 143.202 298.644 143.252C298.691 143.361 298.734 143.471 298.777 143.58C298.886 143.924 298.965 144.264 299.039 144.615C299.426 146.65 299.648 148.717 300.141 150.732C300.645 152.806 301.371 154.822 302.348 156.72C303.289 158.548 304.578 160.263 306.129 161.619C307.688 162.978 309.528 164.064 311.473 164.756C311.578 164.795 311.684 164.83 311.786 164.865C311.786 164.865 311.786 164.869 311.79 164.869C311.802 164.869 311.806 164.85 311.798 164.842C311.632 164.74 311.476 164.635 311.32 164.525ZM307.64 216.307C300.066 224.311 290.726 230.139 280.589 234.194C281.085 236.584 282.483 238.35 285.175 237.647C289.73 236.245 294.105 233.85 298.991 233.709C302.335 233.566 305.471 234.04 308.395 234.96C311.097 227.45 313.983 220.018 317.01 212.632C319.787 206.166 322.554 199.429 325.521 192.735C323.338 194.168 320.964 195.344 318.531 196.279C316.988 203.658 312.769 210.775 307.64 216.307ZM361.646 343.993C365.874 344.451 370.147 344.641 374.464 344.328C376.131 344.246 377.833 343.995 379.531 343.721C379.231 343.514 378.942 343.298 378.641 343.093C371.494 338.277 364.053 334.015 356.441 330.032C358.184 334.684 359.915 339.338 361.646 343.993ZM323.609 322.596C323.056 324.398 322.65 326.239 322.266 328.087C324.741 329.951 327.309 331.676 329.961 333.258C328.17 330.242 326.303 327.27 324.55 324.232C324.238 323.685 323.921 323.143 323.609 322.596ZM341.406 290.494C341.536 290.831 341.662 291.17 341.792 291.506C344.089 289.537 346.34 287.502 348.522 285.366C379.086 256.442 401.327 219.189 412.952 178.839C397.202 191.291 383.422 206.231 370.39 221.452C356.986 237.084 345.03 253.83 333.979 271.173C336.483 277.606 338.868 284.09 341.406 290.494ZM333.087 268.882C333.735 267.871 334.341 266.833 334.998 265.827C348.045 245.554 362.853 226.425 379.018 208.542C389.808 196.733 401.222 185.39 413.906 175.613C417.672 161.811 420.196 147.665 421.376 133.379C422.219 124.013 422.2 114.451 421.31 105.011C405.992 126.482 391.887 148.855 378.268 171.43C360.822 199.898 344.231 228.854 328.685 258.378C330.236 261.841 331.689 265.349 333.087 268.882ZM345.415 23.8196C338.518 32.2866 333.207 42.1706 328.032 51.7876C327.025 53.7056 326.072 55.6516 325.085 57.5796C328.504 59.1276 331.734 61.0746 334.739 63.3546C339.608 48.5366 344.489 33.6736 350.99 19.4766C349.286 19.6756 347.366 21.7656 345.415 23.8196ZM354.548 23.5426C354.036 21.8876 353.459 20.8346 352.837 20.2046C346.352 34.6296 341.292 49.5846 336.379 64.6066C340.19 67.7366 343.543 71.3976 346.371 75.3846C350.874 67.6836 355.767 60.2146 361.112 53.0576C359.738 43.0536 357.652 33.1596 354.548 23.5426ZM363.298 81.1676C363.082 72.7456 362.505 64.2986 361.469 55.9136C359.194 59.1206 356.902 62.3296 354.751 65.6256C352.2 69.3506 349.867 73.2086 347.621 77.1186C347.646 77.1576 347.677 77.1926 347.702 77.2316C355.272 88.9306 355.53 103.213 342.753 108.013C343.55 108.216 344.335 108.47 345.097 108.79C349.78 110.485 351.976 116.091 350.382 120.677C348.128 126.404 341.753 129.111 335.929 129.255C333.062 129.38 330.199 128.982 327.413 128.278C327.737 128.762 328.026 129.235 328.272 129.516C330.952 133.457 331.678 138.739 330.049 143.227C328.209 147.141 324.412 149.438 322.158 153.164C319.58 157.207 317.904 162.383 317.443 167.504C320.06 159.024 324.298 149.899 331.588 145.258C335.635 143.258 336.686 147.778 336.455 150.867C336.42 154.613 336.439 158.363 336.525 162.113C336.551 165.066 336.676 168.086 336.603 171.084C341.313 163.454 346.82 156.452 353.66 150.723C354.028 150.42 354.556 150.083 355.059 149.923C356.911 143.594 358.541 137.202 359.844 130.727C363.045 114.431 363.768 97.7506 363.298 81.1676ZM333.878 203.453C334.683 201.973 335.546 200.516 336.283 199C343.068 184.063 349.304 168.754 354.119 153.022C346.737 159.315 341.074 167.212 336.281 175.686C335.963 178.181 335.388 180.628 334.336 182.967C333.044 185.738 331.162 188.079 328.943 190.076C328.068 191.949 327.209 193.822 326.362 195.683C320.62 208.815 315.178 222.093 310.329 235.585C311.117 235.905 311.856 236.314 312.602 236.711C315.633 231.728 318.692 226.762 321.85 221.86C325.824 215.786 329.826 209.729 333.832 203.675C333.85 203.598 333.849 203.518 333.878 203.453ZM315.172 238.296C318.718 240.78 321.696 244.166 323.847 248.428C325.187 250.934 326.376 253.51 327.57 256.083C341.689 229.187 356.937 202.895 372.648 176.902C378.169 167.813 383.721 158.698 389.347 149.619C388.87 148.868 389.333 147.212 389.362 146.368C389.725 143.304 390.143 140.248 390.553 137.192C391.802 128.105 393.423 119.04 395.668 110.139C391.187 117.723 386.73 125.322 382.306 132.94C361.508 169.055 337.057 202.867 315.172 238.296ZM456.9 29.1556C456.386 28.0136 455.551 26.4186 454.272 25.8696C451.899 25.6346 450.127 28.0916 448.449 29.5006C439.318 39.2786 432.34 50.9096 425.033 62.0776C416.318 75.7306 407.902 89.5666 399.619 103.484C395.512 117.399 393.092 131.779 391.468 146.188C400.871 131.106 410.622 116.226 421.019 101.846C420.999 101.672 420.992 101.495 420.971 101.321C421.12 100.948 421.44 100.818 421.772 100.796C434.238 83.6426 447.658 67.2356 462.829 52.3166C462.825 52.3216 462.821 52.3266 462.816 52.3316C462.83 52.3166 462.854 52.3156 462.869 52.3016C461.935 46.9036 460.747 41.5516 459.322 36.2766C458.633 33.8876 457.897 31.4666 456.9 29.1556ZM443.552 153.245C450.25 144.46 454.957 134.066 458.29 123.53C465.852 101.439 466.891 77.6976 463.247 54.7016C451.48 66.2416 440.757 78.9236 430.699 92.0386C428.071 95.5226 425.572 99.1046 423.021 102.647C423.31 104.489 423.512 106.348 423.658 108.214C424.221 115.265 424.103 122.347 423.67 129.397C422.679 144.306 420.154 159.161 416.351 173.717C417.165 173.112 417.928 172.444 418.754 171.854C422.824 168.987 427.016 166.245 431.519 164.1C432.113 163.714 432.769 163.636 433.207 163.904C433.424 163.734 433.647 163.567 433.85 163.39C437.548 160.404 440.613 157.111 443.552 153.245ZM432.637 166.482C432.489 166.339 432.37 166.173 432.292 165.986C429.792 167.135 427.371 168.562 424.952 170.081C421.708 172.214 418.578 174.497 415.499 176.845C408.675 201.608 397.95 225.364 383.72 246.725C386.38 244.639 389.112 242.646 391.952 240.808C403.784 233.32 422.463 223.133 436.401 222.132C436.462 222.123 436.523 222.145 436.584 222.143C442.593 203.166 442.336 184.334 432.637 166.482ZM435.899 224.141C435.818 224.142 435.731 224.132 435.654 224.144C418.271 226.38 392.464 241.011 379.471 252.875C368.817 267.804 356.427 281.421 342.446 293.224C344.384 298.248 346.284 303.286 348.202 308.318C350.663 307.645 353.121 306.96 355.531 306.134C357.895 305.302 360.21 304.384 362.501 303.419C362.7 303.264 362.937 303.166 363.214 303.14C370.737 299.92 377.891 295.99 384.826 291.376C408.713 275.484 426.897 251.381 435.899 224.141ZM383.152 316.734C378.628 313.214 373.345 310.031 367.941 307.761C366.643 307.213 365.078 306.639 363.546 306.23C360.354 307.566 357.103 308.75 353.809 309.823C364.236 315.354 374.096 322.011 383.124 329.65C383.226 329.629 383.311 329.558 383.417 329.569C386.853 329.927 390.278 330.716 393.542 331.854C395.424 332.533 397.255 333.333 399.043 334.223C397.779 332.337 396.666 330.765 396.031 329.818C392.36 324.913 387.996 320.548 383.152 316.734ZM401.338 337.79C400.289 337.18 399.251 336.55 398.165 336.006C394.249 334.045 390.066 332.659 385.706 331.936C390.486 336.153 395.052 340.61 399.308 345.337C400.043 346.236 404.424 351.317 405.484 354.208C408.697 351.306 405.091 343.874 401.338 337.79ZM403.66 355.089C402.228 352.06 400.051 349.301 397.886 346.747C384.665 332.052 368.702 319.681 351.109 310.637C350.504 310.819 349.903 311.01 349.295 311.183C350.93 315.485 352.596 319.777 354.214 324.084C354.604 325.129 354.996 326.173 355.387 327.218C363.238 331.252 370.933 335.585 378.297 340.461C381.303 342.47 384.312 344.51 386.992 346.945C387.288 347.181 387.6 347.495 387.761 347.837C389.041 348.475 389.988 349.867 391.197 350.626C394.734 353.114 399.15 356.241 403.66 355.089ZM384.514 350.188C384.651 349.506 384.919 348.734 385.382 348.181C385.366 348.166 385.348 348.147 385.332 348.133C384.23 347.154 383.031 346.225 381.796 345.32C381.717 345.336 381.67 345.396 381.583 345.396C375.175 346.567 368.761 346.779 362.453 346.19C363.892 350.075 365.339 353.958 366.738 357.857C367.323 359.485 367.87 361.126 368.444 362.758C375.849 361.908 382.628 358.126 384.514 350.188ZM344.207 356.583C342.363 353.663 340.513 350.745 338.687 347.814C336.41 344.163 334.266 340.432 332.051 336.744C328.508 334.823 325.084 332.663 321.821 330.267C321.509 332.064 321.262 333.874 321.053 335.69C327.327 344.235 334.942 351.508 344.207 356.583ZM312.058 304.045C313.015 305.694 313.964 307.346 314.917 308.998C315.937 310.764 317.007 312.494 318.159 314.174C318.69 314.951 319.245 315.709 319.803 316.463C320.358 317.205 320.913 317.951 321.51 318.662C321.776 318.974 322.045 319.291 322.346 319.572C322.401 319.627 322.479 319.724 322.565 319.736H322.569C322.569 319.736 322.569 319.736 322.573 319.736C322.585 319.736 322.589 319.716 322.577 319.712C322.573 319.712 322.573 319.708 322.569 319.708H322.573C322.569 319.708 322.565 319.708 322.561 319.704H322.565C322.561 319.704 322.557 319.7 322.553 319.7C322.557 319.7 322.557 319.7 322.557 319.7C322.549 319.696 322.545 319.688 322.538 319.684H322.542C322.526 319.668 322.511 319.653 322.495 319.633C322.378 319.473 322.28 319.297 322.182 319.125L322.186 319.129C321.741 318.344 321.354 317.531 320.956 316.719C320.522 315.832 320.089 314.945 319.64 314.067C318.753 312.313 317.858 310.559 316.901 308.844C316.346 307.844 315.76 306.863 315.186 305.875C314.604 304.887 314.034 303.891 313.456 302.902C313.464 302.918 313.472 302.929 313.479 302.945C312.577 301.39 311.663 299.84 310.69 298.328L310.694 298.332C310.678 298.309 310.663 298.285 310.647 298.262C309.647 296.703 308.616 295.168 307.545 293.653C306.502 292.18 305.42 290.735 304.326 289.301C304.318 289.289 304.299 289.301 304.303 289.313C305.791 292.836 307.491 296.278 309.405 299.59C310.269 301.088 311.191 302.549 312.058 304.045ZM275.984 265.986C276.55 265.607 277.132 265.263 277.738 264.947C278.367 264.635 279.008 264.365 279.668 264.127C280.629 263.799 281.605 263.541 282.602 263.334C282.6 263.334 282.597 263.334 282.595 263.334C283.416 263.18 284.241 263.064 285.078 262.998C285.074 262.998 285.07 262.998 285.066 262.998C285.152 262.99 285.238 262.986 285.324 262.982C285.312 262.982 285.301 262.986 285.289 262.986C286.147 262.944 287.002 262.953 287.861 263.017C288.585 263.087 289.302 263.19 290.016 263.338C290.781 263.512 291.535 263.739 292.277 264.008C293.007 264.293 293.712 264.623 294.396 265.008C295.049 265.399 295.678 265.825 296.292 266.284C296.303 266.293 296.314 266.301 296.325 266.309C296.328 266.311 296.33 266.313 296.333 266.315C296.334 266.316 296.336 266.317 296.337 266.318C296.419 266.384 296.501 266.447 296.583 266.513C296.551 266.489 296.52 266.462 296.489 266.439C297.161 266.974 297.786 267.572 298.368 268.201C299.638 269.638 300.749 271.202 301.742 272.842C301.802 272.945 301.862 273.048 301.926 273.151C301.91 273.128 301.895 273.1 301.879 273.077C302.629 274.386 303.27 275.749 303.844 277.147C303.84 277.143 303.84 277.139 303.836 277.139C304.113 277.83 304.371 278.537 304.598 279.252C304.598 279.256 304.602 279.26 304.606 279.26C304.614 279.26 304.622 279.256 304.622 279.248C304.544 277.592 304.192 275.932 303.72 274.346C303.419 273.35 303.029 272.393 302.579 271.448C302.142 270.522 301.646 269.624 301.067 268.776C299.86 267.018 298.309 265.569 296.598 264.311C295.754 263.69 294.836 263.178 293.879 262.753C292.918 262.323 291.914 261.975 290.891 261.725C289.411 261.366 287.87 261.183 286.337 261.183C285.721 261.183 285.106 261.213 284.497 261.272C283.38 261.381 282.282 261.581 281.192 261.834C280.208 262.065 279.243 262.358 278.301 262.725C276.555 263.409 274.965 264.436 273.508 265.604C272.649 266.295 271.863 267.057 271.149 267.893C270.469 268.69 269.875 269.549 269.305 270.428C268.122 272.252 267.145 274.205 266.497 276.287C266.509 276.248 266.52 276.209 266.532 276.17C266.497 276.28 266.462 276.389 266.423 276.494C266.282 276.404 266.153 276.307 266.025 276.201C265.33 275.603 264.697 274.935 264.056 274.283C263.326 273.541 262.568 272.822 261.779 272.146C261.041 271.513 260.267 270.923 259.482 270.353C258.669 269.763 257.83 269.228 256.935 268.763C256.259 268.411 255.568 268.083 254.86 267.794C254.141 267.501 253.399 267.278 252.653 267.064C251.317 266.681 249.95 266.408 248.575 266.228C248.559 266.228 248.555 266.248 248.567 266.255C249.864 266.786 251.133 267.38 252.399 267.985C252.379 267.973 252.36 267.966 252.34 267.954C252.399 267.981 252.457 268.009 252.516 268.04C252.508 268.037 252.501 268.035 252.496 268.032C253.583 268.559 254.628 269.174 255.649 269.825C256.645 270.457 257.597 271.157 258.55 271.855C258.555 271.858 258.559 271.861 258.564 271.865C258.573 271.874 258.584 271.882 258.598 271.891C258.655 271.935 258.713 271.98 258.774 272.021C258.758 272.013 258.743 272.002 258.727 271.99C259.493 272.564 260.242 273.154 260.957 273.795C261.703 274.459 262.414 275.166 263.121 275.869C263.785 276.529 264.422 277.244 265.183 277.791C265.742 278.19 266.421 278.553 267.117 278.299C267.726 278.072 268.023 277.459 268.246 276.893C268.426 276.428 268.574 275.956 268.746 275.487C268.885 275.107 269.047 274.735 269.216 274.366C269.744 273.246 270.345 272.165 271.008 271.12C271.449 270.436 271.918 269.78 272.434 269.151C272.434 269.148 272.436 269.147 272.437 269.145C272.436 269.146 272.436 269.147 272.434 269.147C272.437 269.144 272.44 269.141 272.442 269.138C272.458 269.121 272.472 269.105 272.485 269.088C272.944 268.558 273.428 268.06 273.945 267.584C274.593 267.01 275.269 266.478 275.984 265.986ZM273.648 347.381C273.66 347.381 273.668 347.373 273.656 347.365C272.445 345.881 271.164 344.459 269.793 343.127C268.398 341.772 266.91 340.502 265.367 339.322C264.55 338.697 263.711 338.103 262.875 337.509C262.082 336.946 261.281 336.396 260.469 335.868C258.817 334.798 257.122 333.806 255.383 332.88C254.555 332.439 253.727 332.009 252.887 331.591C252.188 331.24 251.481 330.9 250.789 330.54L250.785 330.536C250.672 330.473 250.558 330.415 250.449 330.345C250.441 330.333 250.421 330.341 250.426 330.357C250.446 330.423 250.563 330.502 250.613 330.545C250.832 330.744 251.058 330.931 251.289 331.123C251.942 331.654 252.606 332.174 253.27 332.69C254.848 333.909 256.442 335.112 258.059 336.284C259.196 337.112 260.348 337.913 261.5 338.721C262.715 339.58 263.91 340.467 265.125 341.33C265.094 341.306 265.066 341.287 265.035 341.264C266.492 342.307 267.957 343.342 269.429 344.358C270.851 345.338 272.241 346.37 273.64 347.381C273.644 347.381 273.648 347.381 273.648 347.381ZM231.968 326.424C233.245 327.69 234.472 329.006 235.644 330.377C235.925 330.705 236.203 331.041 236.476 331.377C236.613 331.545 236.75 331.713 236.886 331.885C236.929 331.936 236.968 331.991 237.011 332.045C237.085 332.158 237.179 332.26 237.261 332.361C237.245 332.341 237.23 332.318 237.214 332.298C237.304 332.411 237.394 332.529 237.48 332.646C238.609 334.13 239.656 335.673 240.609 337.279C241.586 338.927 242.476 340.627 243.297 342.357C243.297 342.353 243.293 342.349 243.293 342.345C243.305 342.372 243.317 342.396 243.328 342.423C243.32 342.404 243.312 342.384 243.304 342.364C243.355 342.477 243.41 342.591 243.46 342.7C243.452 342.688 243.448 342.677 243.44 342.665C244.323 344.571 245.096 346.532 245.749 348.528C246.413 350.571 246.925 352.653 247.347 354.755C247.417 355.083 247.476 355.415 247.539 355.743C247.539 355.755 247.539 355.763 247.543 355.774C247.547 355.797 247.551 355.817 247.555 355.837C247.555 355.833 247.551 355.829 247.551 355.825C247.578 355.981 247.61 356.138 247.637 356.294C247.629 356.255 247.621 356.216 247.613 356.177C247.64 356.333 247.668 356.49 247.695 356.65C247.695 356.646 247.695 356.646 247.695 356.642C247.703 356.697 247.715 356.751 247.726 356.806C247.749 356.947 247.773 357.083 247.792 357.224C247.792 357.224 247.792 357.224 247.792 357.22C247.792 357.224 247.792 357.232 247.796 357.236C247.796 357.248 247.8 357.259 247.8 357.271C247.8 357.279 247.804 357.286 247.804 357.294C247.808 357.302 247.808 357.31 247.808 357.317C247.808 357.313 247.808 357.309 247.808 357.305C248.382 360.957 248.737 364.633 249.03 368.317C249.03 368.321 249.03 368.325 249.03 368.329C249.03 368.333 249.03 368.337 249.03 368.345C249.03 368.357 249.03 368.372 249.034 368.384C249.038 368.423 249.038 368.458 249.042 368.493C249.042 368.493 249.042 368.493 249.042 368.497C249.042 368.509 249.046 368.524 249.046 368.536C249.046 368.544 249.046 368.552 249.046 368.559C249.21 370.704 249.362 372.852 249.519 375.001C249.664 377.001 249.835 379.009 250.093 380.997C250.093 380.993 250.093 380.993 250.093 380.989C250.097 381.005 250.097 381.02 250.101 381.036C250.101 381.052 250.105 381.067 250.105 381.079C250.105 381.091 250.109 381.102 250.109 381.11V381.106C250.512 384.148 251.029 387.182 251.692 390.179C252.644 394.465 253.876 398.703 255.683 402.712C256.433 404.36 257.257 405.958 258.163 407.524C259.245 409.399 260.437 411.219 261.792 412.907C263.116 414.559 264.632 416.032 266.292 417.345C267.327 418.165 268.421 418.927 269.546 419.622C269.968 419.884 270.394 420.149 270.843 420.364C270.843 420.36 270.87 420.376 270.909 420.388C270.944 420.404 270.983 420.415 271.007 420.415C271.019 420.415 271.023 420.411 271.015 420.399C271.011 420.391 271.007 420.391 271.007 420.391C271.003 420.391 270.999 420.391 270.999 420.391C270.983 420.383 270.968 420.375 270.952 420.368C270.956 420.368 270.956 420.368 270.956 420.368C270.897 420.329 270.847 420.282 270.792 420.235C270.062 419.602 269.378 418.899 268.702 418.208C267.901 417.392 267.116 416.555 266.343 415.704C266.28 415.634 266.218 415.563 266.152 415.489C266.148 415.489 266.144 415.485 266.144 415.481C266.14 415.477 266.136 415.473 266.132 415.465C266.128 415.461 266.12 415.457 266.117 415.449C266.113 415.445 266.109 415.437 266.101 415.433C266.101 415.433 266.101 415.433 266.097 415.429C264.765 413.913 263.527 412.327 262.331 410.706C262.331 410.702 262.327 410.698 262.323 410.694C262.327 410.698 262.327 410.702 262.327 410.702C261.397 409.409 260.53 408.077 259.725 406.698C258.827 405.132 258.002 403.53 257.252 401.893C256.486 400.151 255.815 398.381 255.221 396.577C254.513 394.332 253.914 392.061 253.393 389.762C252.781 386.952 252.305 384.12 251.928 381.276C251.928 381.276 251.928 381.272 251.928 381.268C251.928 381.26 251.924 381.248 251.924 381.241C251.924 381.234 251.92 381.221 251.92 381.21C251.92 381.218 251.92 381.222 251.92 381.226C251.92 381.203 251.916 381.183 251.912 381.163C251.912 381.167 251.916 381.171 251.916 381.175C251.389 376.976 251.135 372.761 250.807 368.542C250.502 364.655 250.166 360.761 249.526 356.909C249.526 356.913 249.53 356.917 249.53 356.921C249.499 356.726 249.464 356.53 249.433 356.335C249.433 356.339 249.433 356.343 249.433 356.351C249.054 354.132 248.589 351.937 247.984 349.769C247.41 347.714 246.679 345.687 245.847 343.718C244.164 339.73 242.089 335.863 239.527 332.366C239.308 332.065 239.082 331.764 238.851 331.471C238.878 331.502 238.902 331.534 238.929 331.569C238.757 331.346 238.589 331.128 238.417 330.909C238.44 330.944 238.468 330.975 238.491 331.007C237.225 329.39 235.874 327.851 234.452 326.366C233.725 325.604 232.999 324.846 232.202 324.159C231.386 323.452 230.53 322.788 229.659 322.155C227.518 320.592 225.202 319.26 222.772 318.21C222.756 318.202 222.745 318.222 222.756 318.23C225.98 320.779 229.046 323.537 231.968 326.424ZM132.476 354.303C132.597 356.467 132.738 358.631 132.898 360.791C133.047 362.861 133.304 364.92 133.644 366.971C133.875 368.362 134.144 369.744 134.437 371.123C134.574 371.748 134.711 372.373 134.859 372.994C134.929 373.291 134.996 373.592 135.089 373.885C135.093 373.893 135.097 373.897 135.101 373.897C135.105 373.897 135.113 373.889 135.113 373.881C135.066 372.947 135.094 372.006 135.082 371.068C135.062 369.693 135.027 368.318 134.976 366.939C134.976 366.943 134.976 366.947 134.976 366.951C134.902 364.9 134.812 362.849 134.652 360.806C134.484 358.658 134.355 356.505 134.23 354.357C134.234 354.396 134.234 354.435 134.238 354.474C134.004 350.38 133.769 346.287 133.887 342.181C133.949 340.142 134.059 338.107 134.207 336.072C134.281 335.092 134.367 334.111 134.434 333.131C134.496 332.166 134.547 331.201 134.598 330.236C134.657 329.209 134.707 328.181 134.758 327.154V327.15C134.762 327.142 134.762 327.134 134.762 327.127C134.762 327.115 134.762 327.1 134.762 327.084C134.852 325.49 134.93 323.896 135.04 322.303C135.044 322.287 135.02 322.287 135.017 322.299C133.861 325.643 133.115 329.131 132.689 332.639C132.455 334.573 132.349 336.522 132.244 338.463C132.135 340.561 132.06 342.655 132.068 344.756C132.08 347.983 132.302 351.201 132.486 354.42C132.48 354.381 132.48 354.342 132.476 354.303Z" fill="#C5628E"/>
<path d="M202.705 154.389C202.728 154.39 202.752 154.388 202.775 154.389C202.777 154.389 202.779 154.389 202.779 154.389C202.756 154.389 202.729 154.389 202.705 154.389Z" fill="#C5628E"/>
<path d="M227.21 140.049C227.214 140.037 227.218 140.03 227.222 140.018C227.222 140.018 227.222 140.018 227.226 140.014C227.222 140.029 227.214 140.041 227.21 140.049Z" fill="#C5628E"/>
<path d="M227.195 140.096C227.195 140.088 227.199 140.08 227.203 140.069C227.207 140.061 227.207 140.057 227.211 140.049C227.206 140.064 227.199 140.08 227.195 140.096Z" fill="#C5628E"/>
<path d="M294.457 265.037C294.437 265.026 294.416 265.02 294.396 265.008C294.381 264.999 294.367 264.987 294.352 264.978C294.386 264.998 294.421 265.018 294.457 265.037Z" fill="#C5628E"/>
<path d="M292.347 264.028C292.324 264.019 292.299 264.015 292.276 264.007C292.263 264.002 292.251 263.994 292.238 263.989C292.273 264.001 292.312 264.017 292.347 264.028Z" fill="#C5628E"/>
<path d="M301.769 272.885C301.76 272.87 301.75 272.857 301.741 272.842C301.735 272.832 301.728 272.821 301.722 272.811C301.738 272.834 301.753 272.861 301.769 272.885Z" fill="#C5628E"/>
<path d="M272.433 269.146C272.433 269.15 272.433 269.15 272.433 269.15C272.425 269.158 272.417 269.169 272.41 269.177C272.417 269.166 272.425 269.158 272.433 269.146Z" fill="#C5628E"/>
<path d="M269.233 274.321C269.227 274.335 269.221 274.35 269.215 274.364C269.204 274.387 269.189 274.407 269.178 274.43C269.198 274.396 269.213 274.356 269.233 274.321Z" fill="#C5628E"/>
<path d="M301.281 147.239C301.285 147.251 301.285 147.263 301.289 147.274V147.278C301.285 147.267 301.285 147.255 301.281 147.239Z" fill="#C5628E"/>
<path d="M305.23 158.127C305.244 158.149 305.26 158.169 305.274 158.192C305.279 158.2 305.283 158.209 305.288 158.217C305.269 158.186 305.249 158.158 305.23 158.127Z" fill="#C5628E"/>
<path d="M302.792 153.268C302.796 153.279 302.802 153.289 302.806 153.3C302.815 153.325 302.821 153.352 302.831 153.377C302.82 153.342 302.804 153.307 302.792 153.268Z" fill="#C5628E"/>
<path d="M306.46 159.911C306.473 159.928 306.483 159.946 306.495 159.962C306.484 159.942 306.472 159.927 306.46 159.911Z" fill="#C5628E"/>
<path d="M253.385 389.735C253.387 389.745 253.39 389.754 253.393 389.764C253.396 389.779 253.398 389.794 253.401 389.809C253.397 389.782 253.389 389.759 253.385 389.735Z" fill="#C5628E"/>
<path d="M287.897 263.018C287.885 263.017 287.872 263.018 287.859 263.018C287.834 263.015 287.809 263.009 287.783 263.007C287.823 263.01 287.862 263.014 287.897 263.018Z" fill="#C5628E"/>
<path d="M57.183 299.844C58 298.318 58.8211 296.794 59.6421 295.27C58.8611 294.624 58.3271 293.688 58.3271 292.615C58.3271 292.373 58.42 292.159 58.468 291.93C56.122 290.537 53.7751 289.148 51.3701 287.81C50.2101 287.198 51.105 285.445 52.269 286.021C54.659 287.35 57.005 288.76 59.359 290.154C59.996 289.515 60.8721 289.115 61.8271 289.115C62.1781 289.115 62.5 289.22 62.822 289.32C64.296 286.551 65.7621 283.778 67.1721 280.976C67.8851 279.95 69.492 281.032 68.838 282.079C67.446 284.888 65.951 287.648 64.473 290.415C64.982 291.024 65.3281 291.775 65.3281 292.614C65.3281 292.956 65.223 293.27 65.128 293.584C67.377 294.973 69.614 296.382 71.891 297.727C72.746 298.506 75.6761 299.086 75.0431 300.621C74.8081 301.092 74.1701 301.335 73.6991 301.066C72.1441 300.187 70.5941 299.296 69.0701 298.359C67.3851 297.317 65.699 296.296 64.016 295.266C63.409 295.77 62.6621 296.114 61.8271 296.114C61.7141 296.114 61.616 296.059 61.506 296.048C59.752 299.293 57.99 302.534 56.309 305.815C56.059 306.297 55.419 306.471 54.954 306.213C54.466 305.947 54.3021 305.342 54.5521 304.858C55.4171 303.18 56.3 301.512 57.183 299.844Z" fill="#FCD1D1"/>
<path d="M59.8739 284.607C59.3609 284.748 58.7749 284.433 58.6429 283.904C56.9939 277.172 55.5969 270.386 54.2249 263.595C54.2349 263.636 54.2439 263.682 54.2519 263.724C53.9319 262.457 55.8359 261.944 56.1819 263.197C56.7929 266.325 57.4579 269.445 58.1159 272.572C58.8849 276.185 59.6859 279.791 60.5729 283.377C60.7059 283.908 60.4089 284.459 59.8739 284.607Z" fill="#FCD1D1"/>
<path d="M64.2763 300.48C65.2093 304.345 66.0952 308.222 66.9712 312.101C67.7482 315.55 68.5142 319.003 69.3032 322.453C69.4242 322.984 69.1433 323.531 68.6003 323.68C67.4783 323.96 67.2752 322.704 67.1232 321.887C65.5462 314.923 64.0182 307.946 62.3462 301.004C62.0192 299.736 63.9253 299.229 64.2763 300.48Z" fill="#FCD1D1"/>
<path d="M32.4723 298.13C35.6013 297.52 38.7203 296.854 41.8473 296.196C45.4603 295.426 49.0664 294.626 52.6524 293.739C53.1834 293.606 53.7343 293.903 53.8833 294.438C54.0243 294.951 53.7093 295.537 53.1803 295.669C46.4483 297.318 39.6623 298.715 32.8713 300.087C32.9133 300.077 32.9583 300.068 33.0003 300.06C31.7323 300.381 31.2193 298.476 32.4723 298.13Z" fill="#FCD1D1"/>
<path d="M69.7552 290.036C73.6202 289.103 77.4972 288.216 81.3762 287.341C84.8252 286.564 88.2782 285.798 91.7282 285.009C92.2592 284.888 92.8062 285.169 92.9552 285.712C93.2352 286.834 91.9792 287.037 91.1622 287.189C84.1982 288.766 77.2212 290.295 70.2792 291.966C69.0112 292.293 68.5042 290.387 69.7552 290.036Z" fill="#FCD1D1"/>
<path d="M428.591 429.183C428.542 428.954 428.45 428.74 428.45 428.498C428.45 427.425 428.984 426.49 429.765 425.843C428.944 424.319 428.124 422.796 427.307 421.269C426.424 419.601 425.542 417.933 424.674 416.253C424.424 415.769 424.588 415.163 425.076 414.898C425.542 414.641 426.181 414.814 426.431 415.296C428.112 418.577 429.875 421.818 431.628 425.064C431.739 425.053 431.836 424.998 431.95 424.998C432.785 424.998 433.531 425.342 434.139 425.845C435.822 424.815 437.508 423.794 439.193 422.752C440.716 421.814 442.267 420.924 443.822 420.045C444.293 419.777 444.931 420.019 445.166 420.49C445.799 422.026 442.869 422.605 442.014 423.384C439.737 424.729 437.5 426.137 435.251 427.527C435.346 427.842 435.451 428.155 435.451 428.497C435.451 429.337 435.105 430.087 434.596 430.696C436.074 433.463 437.568 436.223 438.961 439.032C439.615 440.079 438.008 441.161 437.296 440.136C435.886 437.334 434.42 434.561 432.946 431.792C432.624 431.892 432.302 431.997 431.951 431.997C430.996 431.997 430.12 431.597 429.483 430.958C427.129 432.352 424.782 433.763 422.393 435.091C421.229 435.667 420.334 433.914 421.494 433.302C423.898 431.965 426.245 430.576 428.591 429.183Z" fill="#FCD1D1"/>
<path d="M429.998 436.506C430.533 436.654 430.83 437.205 430.697 437.736C429.81 441.322 429.009 444.927 428.24 448.541C427.582 451.668 426.917 454.787 426.306 457.916C425.96 459.169 424.056 458.656 424.376 457.389C424.368 457.43 424.359 457.477 424.349 457.518C425.721 450.727 427.118 443.941 428.767 437.209C428.899 436.68 429.484 436.365 429.998 436.506Z" fill="#FCD1D1"/>
<path d="M434.4 420.633C434.048 421.884 432.142 421.377 432.47 420.11C434.142 413.168 435.67 406.191 437.247 399.227C437.399 398.41 437.602 397.154 438.724 397.434C439.267 397.582 439.548 398.129 439.427 398.661C438.638 402.11 437.872 405.563 437.095 409.013C436.219 412.891 435.333 416.768 434.4 420.633Z" fill="#FCD1D1"/>
<path d="M403.123 421.055C403.081 421.047 403.035 421.038 402.994 421.028C409.785 422.4 416.571 423.797 423.303 425.446C423.832 425.578 424.147 426.163 424.006 426.677C423.858 427.212 423.307 427.509 422.775 427.376C419.189 426.489 415.584 425.688 411.97 424.919C408.843 424.261 405.724 423.596 402.595 422.985C401.343 422.639 401.856 420.735 403.123 421.055Z" fill="#FCD1D1"/>
<path d="M440.402 429.148C447.344 430.82 454.321 432.348 461.285 433.925C462.102 434.077 463.358 434.28 463.078 435.402C462.93 435.945 462.383 436.226 461.851 436.105C458.402 435.316 454.949 434.55 451.499 433.773C447.62 432.897 443.743 432.011 439.878 431.078C438.628 430.726 439.135 428.82 440.402 429.148Z" fill="#FCD1D1"/>
<path d="M442.735 315.533C442.66 315.396 442.56 315.277 442.514 315.123C442.312 314.446 442.467 313.754 442.832 313.196C442.017 312.38 441.218 311.549 440.405 310.73C439.524 309.834 438.642 308.939 437.768 308.032C437.516 307.771 437.505 307.353 437.766 307.091C438.014 306.838 438.455 306.827 438.707 307.086C440.405 308.859 442.148 310.59 443.886 312.326C443.955 312.298 444.006 312.244 444.079 312.222C444.612 312.063 445.153 312.14 445.637 312.345C446.515 311.367 447.395 310.394 448.271 309.408C449.064 308.519 449.884 307.655 450.708 306.798C450.958 306.537 451.411 306.57 451.651 306.826C452.348 307.685 450.589 308.614 450.192 309.274C448.996 310.566 447.837 311.892 446.667 313.207C446.788 313.39 446.914 313.569 446.98 313.788C447.14 314.324 447.063 314.869 446.854 315.354C448.325 316.838 449.805 318.313 451.229 319.84C451.846 320.383 451.027 321.38 450.377 320.862C448.94 319.341 447.445 317.876 445.974 316.388C445.797 316.502 445.625 316.626 445.415 316.689C444.806 316.871 444.171 316.783 443.642 316.496C442.406 317.835 441.178 319.182 439.907 320.486C439.275 321.076 438.369 320.128 438.992 319.516C440.271 318.203 441.504 316.869 442.735 315.533Z" fill="#FCD1D1"/>
<path d="M445.029 319.937C445.399 319.93 445.693 320.224 445.71 320.589C445.828 323.046 446.005 325.499 446.203 327.951C446.38 330.072 446.55 332.188 446.758 334.301C446.776 335.166 445.463 335.202 445.426 334.332C445.428 334.36 445.432 334.391 445.433 334.419C445.013 329.825 444.61 325.229 444.378 320.62C444.361 320.257 444.675 319.945 445.029 319.937Z" fill="#FCD1D1"/>
<path d="M443.477 309.004C443.22 304.256 442.864 299.514 442.542 294.77C442.483 294.22 442.373 293.38 443.142 293.344C443.517 293.335 443.801 293.63 443.825 293.992C443.98 296.343 444.15 298.692 444.312 301.041C444.493 303.683 444.667 306.325 444.809 308.969C444.823 309.836 443.51 309.876 443.477 309.004Z" fill="#FCD1D1"/>
<path d="M424.936 315.205C424.908 315.208 424.877 315.211 424.848 315.212C429.442 314.792 434.038 314.389 438.647 314.157C439.01 314.14 439.322 314.454 439.33 314.808C439.337 315.178 439.043 315.472 438.678 315.489C436.221 315.607 433.768 315.784 431.316 315.982C429.196 316.159 427.078 316.329 424.966 316.537C424.102 316.555 424.066 315.242 424.936 315.205Z" fill="#FCD1D1"/>
<path d="M450.263 313.258C455.011 313 459.753 312.645 464.497 312.322C465.047 312.263 465.887 312.153 465.922 312.922C465.931 313.297 465.636 313.58 465.274 313.605C462.923 313.76 460.574 313.93 458.225 314.092C455.583 314.273 452.941 314.447 450.297 314.589C449.432 314.603 449.392 313.29 450.263 313.258Z" fill="#FCD1D1"/>
<path d="M139.619 46.7164C139.544 46.5794 139.444 46.4604 139.398 46.3064C139.196 45.6294 139.351 44.9374 139.716 44.3794C138.901 43.5634 138.102 42.7324 137.289 41.9134C136.408 41.0174 135.526 40.1224 134.652 39.2154C134.4 38.9544 134.389 38.5364 134.65 38.2744C134.898 38.0214 135.339 38.0104 135.591 38.2694C137.289 40.0424 139.032 41.7734 140.77 43.5094C140.839 43.4814 140.89 43.4274 140.962 43.4054C141.495 43.2464 142.036 43.3234 142.52 43.5284C143.398 42.5504 144.278 41.5774 145.154 40.5904C145.947 39.7014 146.767 38.8374 147.591 37.9804C147.84 37.7194 148.293 37.7524 148.533 38.0084C149.23 38.8674 147.471 39.7964 147.074 40.4564C145.878 41.7484 144.72 43.0744 143.55 44.3894C143.671 44.5724 143.797 44.7514 143.863 44.9704C144.023 45.5064 143.946 46.0504 143.737 46.5364C145.208 48.0194 146.688 49.4954 148.112 51.0224C148.729 51.5654 147.91 52.5624 147.26 52.0434C145.823 50.5224 144.328 49.0574 142.857 47.5694C142.68 47.6834 142.508 47.8074 142.298 47.8704C141.689 48.0524 141.054 47.9644 140.525 47.6774C139.289 49.0164 138.061 50.3634 136.79 51.6674C136.158 52.2574 135.252 51.3094 135.876 50.6974C137.155 49.3864 138.388 48.0524 139.619 46.7164Z" fill="#FCD1D1"/>
<path d="M141.912 51.1202C142.282 51.1132 142.576 51.4072 142.593 51.7722C142.711 54.2292 142.888 56.6822 143.086 59.1342C143.263 61.2542 143.433 63.3722 143.641 65.4842C143.659 66.3492 142.347 66.3852 142.309 65.5162C142.312 65.5442 142.315 65.5752 142.316 65.6042C141.896 61.0102 141.493 56.4142 141.261 51.8052C141.244 51.4402 141.558 51.1282 141.912 51.1202Z" fill="#FCD1D1"/>
<path d="M140.361 40.1875C140.104 35.4395 139.748 30.6965 139.426 25.9535C139.367 25.4035 139.257 24.5635 140.026 24.5275C140.401 24.5185 140.684 24.8145 140.709 25.1765C140.864 27.5275 141.034 29.8765 141.196 32.2255C141.377 34.8675 141.551 37.5105 141.693 40.1535C141.707 41.0185 140.394 41.0595 140.361 40.1875Z" fill="#FCD1D1"/>
<path d="M121.82 46.3884C121.792 46.3914 121.761 46.3944 121.732 46.3954C126.326 45.9754 130.922 45.5724 135.531 45.3404C135.894 45.3244 136.206 45.6374 136.214 45.9914C136.221 46.3614 135.927 46.6554 135.562 46.6724C133.105 46.7904 130.652 46.9674 128.2 47.1654C126.079 47.3424 123.962 47.5124 121.85 47.7204C120.986 47.7384 120.95 46.4254 121.82 46.3884Z" fill="#FCD1D1"/>
<path d="M147.146 44.4417C151.894 44.1837 156.636 43.8287 161.38 43.5067C161.93 43.4477 162.77 43.3377 162.806 44.1067C162.815 44.4817 162.52 44.7647 162.158 44.7897C159.807 44.9437 157.458 45.1147 155.109 45.2757C152.467 45.4567 149.825 45.6307 147.181 45.7727C146.315 45.7867 146.275 44.4737 147.146 44.4417Z" fill="#FCD1D1"/>
<path d="M48.1559 180.219C47.9759 179.8 47.9089 179.329 48.0469 178.867C48.1029 178.679 48.2129 178.523 48.3169 178.366C47.3069 177.231 46.3069 176.086 45.2739 174.971C44.9309 174.401 43.4129 173.6 44.0139 172.858C44.2209 172.637 44.6119 172.609 44.8279 172.834C45.5389 173.574 46.2469 174.32 46.9319 175.087C47.6879 175.939 48.4479 176.778 49.2059 177.623C49.6239 177.446 50.0909 177.379 50.5509 177.517C50.6129 177.535 50.6579 177.582 50.7169 177.606C52.2169 176.107 53.7219 174.613 55.1879 173.082C55.4049 172.858 55.7859 172.867 55.9999 173.086C56.2249 173.313 56.2159 173.673 55.9979 173.899C55.2439 174.682 54.4829 175.455 53.7219 176.228C53.0199 176.935 52.3299 177.652 51.6269 178.357C51.9429 178.839 52.0769 179.436 51.9019 180.021C51.8619 180.154 51.7759 180.257 51.7109 180.375C52.7739 181.529 53.8379 182.68 54.9419 183.813C55.4799 184.341 54.6979 185.159 54.1529 184.65C53.0549 183.524 51.9949 182.361 50.9279 181.205C50.4719 181.452 49.9239 181.529 49.3979 181.371C49.2169 181.317 49.0679 181.21 48.9149 181.111C47.6449 182.395 46.3539 183.66 45.1139 184.973C44.5529 185.421 43.8459 184.56 44.3779 184.091C45.6089 182.773 46.8859 181.5 48.1559 180.219Z" fill="#FCD1D1"/>
<path d="M49.3827 196.678C49.3847 196.653 49.3857 196.628 49.3887 196.604V196.603C49.3867 196.627 49.3837 196.654 49.3827 196.678Z" fill="#FCD1D1"/>
<path d="M49.1434 184.738C49.1574 184.424 49.4124 184.169 49.7314 184.175C50.0374 184.182 50.3074 184.452 50.2934 184.765C50.0944 188.719 49.7484 192.662 49.3884 196.603C49.3554 197.352 48.2234 197.321 48.2394 196.575C48.4184 194.751 48.5654 192.924 48.7184 191.093C48.8884 188.977 49.0414 186.859 49.1434 184.738Z" fill="#FCD1D1"/>
<path d="M51.0699 174.738C51.0419 175.49 49.9089 175.456 49.9209 174.708C50.0439 172.426 50.1939 170.145 50.3499 167.864C50.4899 165.836 50.6369 163.808 50.7699 161.779C50.7909 161.466 51.0359 161.212 51.3589 161.219C52.0229 161.25 51.9279 161.975 51.8769 162.45C51.5999 166.544 51.2929 170.639 51.0699 174.738Z" fill="#FCD1D1"/>
<path d="M67.1533 180.097C67.1283 180.095 67.1033 180.094 67.0783 180.091H67.0773C67.1013 180.093 67.1283 180.096 67.1533 180.097Z" fill="#FCD1D1"/>
<path d="M54.6507 179.748C54.6577 179.442 54.9277 179.172 55.2407 179.186C59.1947 179.385 63.1378 179.731 67.0788 180.091C67.8288 180.124 67.7967 181.256 67.0507 181.24C65.2267 181.061 63.3997 180.914 61.5687 180.761C59.4517 180.59 57.3347 180.437 55.2137 180.335C54.8987 180.321 54.6447 180.067 54.6507 179.748Z" fill="#FCD1D1"/>
<path d="M32.9244 177.602C37.0194 177.88 41.1134 178.187 45.2124 178.409C45.9644 178.437 45.9294 179.57 45.1824 179.558C42.9004 179.435 40.6194 179.285 38.3384 179.129C36.3104 178.989 34.2824 178.842 32.2534 178.709C31.9404 178.688 31.6854 178.443 31.6934 178.12C31.7244 177.456 32.4494 177.551 32.9244 177.602Z" fill="#FCD1D1"/>
</svg>
